# xmcd
#
# Track frame offsets:
#	150
#	13400
#	36959
#	51915
#	69949
#	92826
#	106018
#	111341
#	124184
#	133679
#	150052
#
# Disc length: 2218 seconds
#
# Revision: 1
# Processed by: cddbd v1.5.1PL2 Copyright (c) Steve Scherf et al.
# Submitted via: audiograbber 1.83.01
#
DISCID=8c08a80b
DTITLE=Dago Red - Feel ...Goin' On
DYEAR=2005
DGENRE=
TTITLE0=Lord I feel ...
TTITLE1=Here am I ... lord send me
TTITLE2=Burgeois blues
TTITLE3=Bo weavil
TTITLE4=Sittin' in Heaven'
TTITLE5=Kansas City blues
TTITLE6=Another man
TTITLE7=There was a time
TTITLE8=Key to the highway
TTITLE9=Walk on
TTITLE10=Rollin' night and day (bonus)
EXTD=
EXTT0=
EXTT1=
EXTT2=
EXTT3=
EXTT4=
EXTT5=
EXTT6=
EXTT7=
EXTT8=
EXTT9=
EXTT10=
PLAYORDER=
